<?xml version="1.0" encoding="UTF-8"?>
<svg id="Capa_1" data-name="Capa 1" xmlns="http://www.w3.org/2000/svg" viewBox="0 0 524.94 828.43">
  <defs>
    <style>
      .cls-1 {
        fill: #fff;
        stroke-width: 0px;
      }
    </style>
  </defs>
  <g>
    <path class="cls-1" d="M136.82,324.96c12.32-4.64,24.66-9.65,37.44-12.53,14.42-3.24,36.82,2.15,43.96,23.78,2.82,8.55,6.17,17.05,6.03,26.05,0,0-3.96,268.9-4.47,285.22-.48,15.45-1.45,30.94-7.25,45.62-.59,1.49-1.24,3.99-.05,5.11,32.53,30.87,43.06,130.26,43.07,130.22V0s-12.14,166.08-53.74,266.6c4.13-1.46,7.5-2.64,11.37-4.01-.45,5.77-.84,10.85-1.23,15.92-4.41.57-8.41,1.11-12.4,1.6-13.59,1.66-24.7,8.84-35.94,15.89-6.81,4.27-13.79,8.34-21.04,11.79-5.66,2.69-9.99,1.26-13.55-3.81-2.48-3.53-8.22-15.4-9.14-17.42-.55,16.51,3.15,31.71,10.6,45.39,2.25-2.58,3.82-6.04,6.35-6.99Z"/>
    <path class="cls-1" d="M43.35,541.32c20.73,22.08,39.31,45.93,40.72,78.42,4.13-17.45,5.27-34.66-4.22-51.23,8.98,4.43,16.17,10.78,21.85,18.65,15.1,20.93,24.57,44.47,31.06,69.28,1.71,6.54,5.23,21.73,5.3,21,1.57-16.99,1.2-37.26-1.99-53.99-3.56-18.68-7.94-37.2-11.42-55.89-2.26-12.16-3.8-24.73,6.21-34.63,4.22-4.17,9.58-7.19,14.28-10.63-4.09-1.75-43.44-23.94-9.95-47.73,2.56-1.82,5.55-3.03,8.69-3.16,17.83-.73,29.39,28.92,32.27,35.39,16.77,37.57,20.67,76.8,16.09,119.42,1.07-2.39,1.72-3.47,2.06-4.65,4.72-16.33,8.24-33.1,8.38-50.08.21-15.93.68-40.71,1.16-66.2.41-22.32.74-45.16,1.1-62.96.33-16.23.42-28.47.56-32.01.09-2.43.28-20.91.47-27.06.17-5.42-3.74-11.34-6.89-15.65-8.37-11.45-16.9-22.78-25.36-34.17-.97-1.31-3.6-3.69-4.53-5.03-.44.42,5.12,13.14,7.29,18.64,4.63,11.72,20.53,57,4.15,60.94-4.77,1.24-8.76-8.32-11.61-12.24-3.44,8.09-8.09,39.82-38.68,42.27-66.3,5.3-93.78-68.4-93.91-69.07-.52.34-1.72,14.61-2.46,21.65-21.11-22.99-23.15-51.16-27.61-79.11-.59,1.33-7.01,45.58,5.3,68.52,10.58,21.02,21.25,41.99,32.03,62.91,12.41,24.06,25.54,47.79,34.25,73.55,2.27,6.71,3.65,13.71,5.63,21.27C54.93,526.13,27.47,514.99,0,503.84c-.22.48,32.18,25.58,43.35,37.47Z"/>
  </g>
  <g>
    <path class="cls-1" d="M388.11,324.96c-12.32-4.64-24.66-9.65-37.44-12.53-14.42-3.24-36.82,2.15-43.96,23.78-2.82,8.55-6.17,17.05-6.03,26.05,0,0,3.96,268.9,4.47,285.22.48,15.45,1.45,30.94,7.25,45.62.59,1.49,1.24,3.99.05,5.11-32.53,30.87-43.06,130.26-43.07,130.22V0s12.14,166.08,53.74,266.6c-4.13-1.46-7.5-2.64-11.37-4.01.45,5.77.84,10.85,1.23,15.92,4.41.57,8.41,1.11,12.4,1.6,13.59,1.66,24.7,8.84,35.94,15.89,6.81,4.27,13.79,8.34,21.04,11.79,5.66,2.69,9.99,1.26,13.55-3.81,2.48-3.53,8.22-15.4,9.14-17.42.55,16.51-3.15,31.71-10.6,45.39-2.25-2.58-3.82-6.04-6.35-6.99Z"/>
    <path class="cls-1" d="M481.59,541.32c-20.73,22.08-39.31,45.93-40.72,78.42-4.13-17.45-5.27-34.66,4.22-51.23-8.98,4.43-16.17,10.78-21.85,18.65-15.1,20.93-24.57,44.47-31.06,69.28-1.71,6.54-5.23,21.73-5.3,21-1.57-16.99-1.2-37.26,1.99-53.99,3.56-18.68,7.94-37.2,11.42-55.89,2.26-12.16,3.8-24.73-6.21-34.63-4.22-4.17-9.58-7.19-14.28-10.63,4.09-1.75,43.44-23.94,9.95-47.73-2.56-1.82-5.55-3.03-8.69-3.16-17.83-.73-29.39,28.92-32.27,35.39-16.77,37.57-20.67,76.8-16.09,119.42-1.07-2.39-1.72-3.47-2.06-4.65-4.72-16.33-8.24-33.1-8.38-50.08-.21-15.93-.68-40.71-1.16-66.2-.41-22.32-.74-45.16-1.1-62.96-.33-16.23-.42-28.47-.56-32.01-.09-2.43-.28-20.91-.47-27.06-.17-5.42,3.74-11.34,6.89-15.65,8.37-11.45,16.9-22.78,25.36-34.17.97-1.31,3.6-3.69,4.53-5.03.44.42-5.12,13.14-7.29,18.64-4.63,11.72-20.53,57-4.15,60.94,4.77,1.24,8.76-8.32,11.61-12.24,3.44,8.09,8.09,39.82,38.68,42.27,66.3,5.3,93.78-68.4,93.91-69.07.52.34,1.72,14.61,2.46,21.65,21.11-22.99,23.15-51.16,27.61-79.11.59,1.33,7.01,45.58-5.3,68.52-10.58,21.02-21.25,41.99-32.03,62.91-12.41,24.06-25.54,47.79-34.25,73.55-2.27,6.71-3.65,13.71-5.63,21.27,28.62-11.61,56.09-22.75,83.55-33.9.22.48-32.18,25.58-43.35,37.47Z"/>
  </g>
</svg>